<?xml version="1.0" encoding="UTF-8" standalone="no"?>
<!DOCTYPE svg PUBLIC "-//W3C//DTD SVG 1.1//EN"
 "http://www.w3.org/Graphics/SVG/1.1/DTD/svg11.dtd">
<!-- Generated by graphviz version 2.38.0 (20140413.2041)
 -->
<!-- Title: %3 Pages: 1 -->
<svg width="389pt" height="231pt"
 viewBox="0.00 0.00 389.00 231.00" xmlns="http://www.w3.org/2000/svg" xmlns:xlink="http://www.w3.org/1999/xlink">
<g id="graph0" class="graph" transform="scale(1 1) rotate(0) translate(4 227)">
<title>%3</title>
<polygon fill="#333333" stroke="none" points="-4,4 -4,-227 385,-227 385,4 -4,4"/>
<text text-anchor="middle" x="190.5" y="-9.2" font-family="Times,serif" font-size="16.00" fill="white">Network Map</text>
<!-- SW1 -->
<g id="node1" class="node"><title>SW1</title>
<polygon fill="#006699" stroke="#006699" points="96,-223 4,-223 4,-150 96,-150 96,-223"/>
<text text-anchor="middle" x="50" y="-182.8" font-family="Helvetica,sans-Serif" font-size="14.00" fill="white">SW1</text>
</g>
<!-- R4 -->
<g id="node2" class="node"><title>R4</title>
<polygon fill="#006699" stroke="#006699" points="211.5,-223 134.5,-223 134.5,-150 211.5,-150 211.5,-223"/>
<text text-anchor="middle" x="173" y="-182.8" font-family="Helvetica,sans-Serif" font-size="14.00" fill="white">R4</text>
</g>
<!-- R5 -->
<g id="node3" class="node"><title>R5</title>
<polygon fill="#006699" stroke="#006699" points="334.5,-223 257.5,-223 257.5,-150 334.5,-150 334.5,-223"/>
<text text-anchor="middle" x="296" y="-182.8" font-family="Helvetica,sans-Serif" font-size="14.00" fill="white">R5</text>
</g>
<!-- R3 -->
<g id="node4" class="node"><title>R3</title>
<polygon fill="#006699" stroke="#006699" points="88.5,-99 11.5,-99 11.5,-26 88.5,-26 88.5,-99"/>
<text text-anchor="middle" x="50" y="-58.8" font-family="Helvetica,sans-Serif" font-size="14.00" fill="white">R3</text>
</g>
<!-- R3&#45;&#45;SW1 -->
<g id="edge1" class="edge"><title>R3&#45;&#45;SW1</title>
<path fill="none" stroke="green" stroke-dasharray="5,2" d="M50,-99.1154C50,-115.01 50,-133.704 50,-149.629"/>
<text text-anchor="middle" x="100" y="-120.8" font-family="Courier,monospace" font-size="14.00" fill="white"> &#160;&#160;&#160;&#160;&#160;&#160;&#160;&#160;&#160;&#160;&#160;</text>
<text text-anchor="middle" x="25" y="-138.429" font-family="Courier,monospace" font-size="14.00" fill="white">Eth0/3</text>
<text text-anchor="middle" x="25" y="-102.915" font-family="Courier,monospace" font-size="14.00" fill="white">Eth0/0</text>
</g>
<!-- Cap -->
<g id="node5" class="node"><title>Cap</title>
<polygon fill="#006699" stroke="#006699" points="276.5,-99 191.5,-99 191.5,-26 276.5,-26 276.5,-99"/>
<text text-anchor="middle" x="234" y="-58.8" font-family="Helvetica,sans-Serif" font-size="14.00" fill="white">Cap</text>
</g>
<!-- Cap&#45;&#45;R4 -->
<g id="edge2" class="edge"><title>Cap&#45;&#45;R4</title>
<path fill="none" stroke="green" stroke-dasharray="5,2" d="M191.435,-93.1151C184.386,-100.088 178.06,-108.114 174,-117 169.403,-127.061 168.014,-138.852 168.109,-149.788"/>
<text text-anchor="middle" x="224" y="-120.8" font-family="Courier,monospace" font-size="14.00" fill="white"> &#160;&#160;&#160;&#160;&#160;&#160;&#160;&#160;&#160;&#160;&#160;</text>
<text text-anchor="middle" x="143.109" y="-138.588" font-family="Courier,monospace" font-size="14.00" fill="white">Eth0/0</text>
<text text-anchor="middle" x="166.435" y="-81.9151" font-family="Courier,monospace" font-size="14.00" fill="white">Eth0/1</text>
</g>
<!-- Cap&#45;&#45;R5 -->
<g id="edge3" class="edge"><title>Cap&#45;&#45;R5</title>
<path fill="none" stroke="green" stroke-dasharray="5,2" d="M263.235,-99.2785C267.175,-105.007 270.915,-111.023 274,-117 279.27,-127.212 283.593,-138.931 286.97,-149.755"/>
<text text-anchor="middle" x="331" y="-120.8" font-family="Courier,monospace" font-size="14.00" fill="white"> &#160;&#160;&#160;&#160;&#160;&#160;&#160;&#160;&#160;&#160;&#160;</text>
<text text-anchor="middle" x="261.97" y="-138.555" font-family="Courier,monospace" font-size="14.00" fill="white">Eth0/0</text>
<text text-anchor="middle" x="238.235" y="-103.079" font-family="Courier,monospace" font-size="14.00" fill="white">Eth0/2</text>
</g>
</g>
</svg>
